<?xml version="1.0" encoding="UTF-8"?>
<!DOCTYPE svg PUBLIC "-//W3C//DTD SVG 1.1//EN" "http://www.w3.org/Graphics/SVG/1.1/DTD/svg11.dtd">
<!-- Creator: CorelDRAW -->
<svg xmlns="http://www.w3.org/2000/svg" xml:space="preserve" width="24" height="24" version="1.1" style="shape-rendering:geometricPrecision; text-rendering:geometricPrecision; image-rendering:optimizeQuality; fill-rule:evenodd; clip-rule:evenodd"
viewBox="0 0 7111 7111"
 xmlns:xlink="http://www.w3.org/1999/xlink">
 <defs>
  <style type="text/css">
   <![CDATA[
    .fil0 {fill:black}
   ]]>
  </style>
 </defs>
 <g id="Layer_x0020_1">
  <metadata id="CorelCorpID_0Corel-Layer"/>
  <g id="_504515992">
   <g>
    <g>
     <path class="fil0" d="M4465 7085l-1817 0c-173,0 -313,-140 -313,-314l0 -729c-109,-54 -216,-115 -318,-184l-633 365c-73,41 -157,52 -239,32 -82,-23 -149,-74 -190,-146l-909 -1576c-42,-72 -53,-156 -32,-238 22,-82 73,-149 145,-190l632 -366c-4,-58 -6,-119 -6,-183 0,-64 2,-125 6,-183l-633 -365c-150,-87 -201,-280 -114,-430l909 -1574c42,-73 109,-125 191,-148 81,-22 166,-11 238,32l632 365c101,-68 208,-129 318,-183l0 -730c0,-173 140,-314 313,-314l1817 0c174,0 314,141 314,314l0 730c113,56 218,117 318,183l632 -365c72,-41 158,-52 238,-30 81,22 149,73 190,147l910 1574c86,150 34,343 -116,429l-628 365c4,62 7,124 7,183 0,60 -3,120 -7,183l633 366c72,40 123,108 145,188 23,82 11,167 -30,240l-909 1576c-88,150 -281,201 -429,115l-632 -365c-101,68 -208,131 -318,185l0 728c0,173 -141,313 -315,313zm-2444 -1440c19,0 39,6 55,18 127,89 260,167 396,229 35,16 57,50 57,89l0 790c0,67 54,119 119,119l1817 0c67,0 120,-54 120,-119l0 -790c0,-37 22,-72 55,-87 139,-64 271,-142 396,-229 30,-22 72,-24 104,-4l684 395c57,33 131,14 164,-43l909 -1574c15,-28 20,-60 11,-92 -8,-30 -28,-55 -55,-70l-686 -396c-33,-19 -51,-55 -49,-93 7,-80 12,-155 12,-228 0,-73 -5,-149 -12,-227 -2,-38 16,-74 49,-93l686 -396c57,-33 77,-107 44,-164l-909 -1574c-17,-27 -42,-47 -74,-57 -30,-8 -63,-4 -91,13l-686 395c-33,20 -74,17 -105,-5 -120,-85 -253,-162 -395,-228 -34,-15 -55,-50 -55,-87l0 -791c0,-66 -54,-120 -120,-120l-1817 0c-66,0 -119,54 -119,120l0 791c0,37 -22,72 -57,89 -139,64 -272,140 -395,227 -31,23 -73,24 -105,4l-685 -395c-28,-17 -60,-21 -90,-13 -31,9 -57,28 -73,56l-909 1574c-33,57 -12,132 43,164l686 395c33,20 51,56 48,93 -6,73 -9,148 -9,228 0,81 3,155 9,228 3,37 -15,73 -48,93l-686 395c-28,16 -47,42 -55,72 -9,31 -5,64 11,91l909 1575c15,28 42,47 72,56 31,8 63,4 90,-11l686 -396c19,-13 36,-17 53,-17z"/>
    </g>
    <g>
     <path class="fil0" d="M3556 5579c-1115,0 -2022,-908 -2022,-2023 0,-1116 907,-2024 2022,-2024 1116,0 2024,908 2024,2024 0,1116 -908,2023 -2024,2023zm0 -3852c-1008,0 -1828,820 -1828,1829 0,1008 820,1828 1828,1828 1009,0 1830,-820 1830,-1828 0,-1009 -821,-1829 -1830,-1829z"/>
    </g>
    <g>
     <g>
      <path class="fil0" d="M3748 4321c-55,0 -98,-43 -98,-97l0 -543c0,-54 43,-97 98,-97l342 0c157,0 268,-31 321,-86 56,-61 83,-135 83,-224 0,-50 -11,-97 -30,-138 -20,-41 -45,-71 -75,-92 0,0 -2,0 -2,-1 -31,-23 -73,-38 -124,-48 -32,-5 -89,-11 -186,-11l-328 0c-54,0 -97,-43 -97,-97 0,-54 43,-97 97,-97l328 0c88,0 163,4 219,14 80,14 148,40 204,79 58,40 105,96 139,167 33,68 50,144 50,223 0,138 -46,257 -135,354 -92,100 -247,150 -464,150l-245 0 0 446c0,55 -45,98 -97,98z"/>
     </g>
     <g>
      <path class="fil0" d="M2179 4321c-11,0 -24,-3 -35,-7 -50,-19 -75,-75 -55,-125l513 -1335c14,-38 50,-63 91,-63l190 0c39,0 75,24 90,60l547 1335c21,50 -4,107 -53,127 -50,21 -107,-4 -126,-53l-523 -1274 -59 0 -490 1274c-14,37 -51,61 -90,61z"/>
     </g>
     <g>
      <path class="fil0" d="M3748 3778c-55,0 -98,-43 -98,-97l0 -792c0,-55 43,-98 98,-98 54,0 97,43 97,98l0 792c0,54 -45,97 -97,97z"/>
     </g>
     <g>
      <path class="fil0" d="M4933 4321c-54,0 -97,-43 -97,-97l0 -1335c0,-55 43,-98 97,-98 54,0 97,43 97,98l0 1335c0,54 -43,97 -97,97z"/>
     </g>
     <g>
      <path class="fil0" d="M3156 3653l-720 0c-54,0 -97,-43 -97,-97 0,-54 43,-97 97,-97l720 0c54,0 97,43 97,97 0,54 -43,97 -97,97z"/>
     </g>
    </g>
   </g>
  </g>
 </g>
</svg>
