<?xml version="1.0" encoding="UTF-8" standalone="no"?> <svg height="24" width="24" viewBox="0 0 48 48" fill="none" xmlns="http://www.w3.org/2000/svg">
<path d="M27 8H4C3.20435 8 2.44129 8.31607 1.87868 8.87868C1.31607 9.44129 1 10.2044 1 11V25C1 25.7956 1.31607 26.5587 1.87868 27.1213C2.44129 27.6839 3.20435 28 4 28H15V30H6C5.73478 30 5.48043 30.1054 5.29289 30.2929C5.10536 30.4804 5 30.7348 5 31C5 31.2652 5.10536 31.5196 5.29289 31.7071C5.48043 31.8946 5.73478 32 6 32H25C25.2652 32 25.5196 31.8946 25.7071 31.7071C25.8946 31.5196 26 31.2652 26 31C26 30.7348 25.8946 30.4804 25.7071 30.2929C25.5196 30.1054 25.2652 30 25 30H17V28H27C27.7956 28 28.5587 27.6839 29.1213 27.1213C29.6839 26.5587 30 25.7956 30 25V11C30 10.2044 29.6839 9.44129 29.1213 8.87868C28.5587 8.31607 27.7956 8 27 8ZM28 25C28 25.2652 27.8946 25.5196 27.7071 25.7071C27.5196 25.8946 27.2652 26 27 26H4C3.73478 26 3.48043 25.8946 3.29289 25.7071C3.10536 25.5196 3 25.2652 3 25V11C3 10.7348 3.10536 10.4804 3.29289 10.2929C3.48043 10.1054 3.73478 10 4 10H27C27.2652 10 27.5196 10.1054 27.7071 10.2929C27.8946 10.4804 28 10.7348 28 11V25Z" fill="black"/>
<path d="M44 8H35C34.2044 8 33.4413 8.31607 32.8787 8.87868C32.3161 9.44129 32 10.2044 32 11V32C32 32.2652 32.1054 32.5196 32.2929 32.7071C32.4804 32.8946 32.7348 33 33 33C33.2652 33 33.5196 32.8946 33.7071 32.7071C33.8946 32.5196 34 32.2652 34 32V11C34 10.7348 34.1054 10.4804 34.2929 10.2929C34.4804 10.1054 34.7348 10 35 10H44C44.2652 10 44.5196 10.1054 44.7071 10.2929C44.8946 10.4804 45 10.7348 45 11V37C45 37.2652 44.8946 37.5196 44.7071 37.7071C44.5196 37.8946 44.2652 38 44 38H43C42.7348 38 42.4804 38.1054 42.2929 38.2929C42.1054 38.4804 42 38.7348 42 39C42 39.2652 42.1054 39.5196 42.2929 39.7071C42.4804 39.8946 42.7348 40 43 40H44C44.7956 40 45.5587 39.6839 46.1213 39.1213C46.6839 38.5587 47 37.7956 47 37V11C47 10.2044 46.6839 9.44129 46.1213 8.87868C45.5587 8.31607 44.7956 8 44 8Z" fill="black"/>
<path d="M26.8 34.4C26.7069 34.2758 26.5861 34.175 26.4472 34.1056C26.3084 34.0361 26.1552 34 26 34H5C4.84476 34 4.69164 34.0361 4.55279 34.1056C4.41393 34.175 4.29315 34.2758 4.2 34.4L1.2 38.4C1.08857 38.5486 1.02072 38.7252 1.00404 38.9102C0.987363 39.0952 1.02252 39.2811 1.10557 39.4472C1.18863 39.6133 1.31629 39.753 1.47427 39.8507C1.63225 39.9483 1.81429 40 2 40H29C29.1857 40 29.3678 39.9483 29.5257 39.8507C29.6837 39.753 29.8114 39.6133 29.8944 39.4472C29.9775 39.2811 30.0126 39.0952 29.996 38.9102C29.9793 38.7252 29.9114 38.5486 29.8 38.4L26.8 34.4ZM4 38L5.5 36H25.5L27 38H4Z" fill="black"/>
<path d="M35.826 34C34.7642 33.9435 33.715 34.2522 32.853 34.8747C31.991 35.4973 31.3681 36.3963 31.088 37.422C30.9948 37.7191 30.9734 38.0341 31.0256 38.3411C31.0777 38.6481 31.2019 38.9383 31.388 39.188C31.575 39.4394 31.8181 39.6437 32.0979 39.7847C32.3778 39.9257 32.6867 39.9994 33 40H38.644C38.9563 40.0005 39.2643 39.9278 39.5434 39.7879C39.8225 39.648 40.065 39.4446 40.2514 39.1941C40.4379 38.9436 40.5631 38.653 40.617 38.3454C40.6709 38.0379 40.6521 37.722 40.562 37.423C40.282 36.3975 39.6594 35.4987 38.7979 34.876C37.9363 34.2533 36.8876 33.9442 35.826 34ZM33 38V38.005C33.1504 37.3864 33.5192 36.8429 34.0384 36.4745C34.5576 36.1061 35.1924 35.9376 35.826 36C36.4585 35.9371 37.0924 36.1049 37.6109 36.4724C38.1295 36.8399 38.4978 37.3824 38.648 38H33Z" fill="black"/>
<path d="M36 15H43C43.2652 15 43.5196 14.8946 43.7071 14.7071C43.8946 14.5196 44 14.2652 44 14C44 13.7348 43.8946 13.4804 43.7071 13.2929C43.5196 13.1054 43.2652 13 43 13H36C35.7348 13 35.4804 13.1054 35.2929 13.2929C35.1054 13.4804 35 13.7348 35 14C35 14.2652 35.1054 14.5196 35.2929 14.7071C35.4804 14.8946 35.7348 15 36 15Z" fill="black"/>
<path d="M39.5 30C40.0523 30 40.5 29.5523 40.5 29C40.5 28.4477 40.0523 28 39.5 28C38.9477 28 38.5 28.4477 38.5 29C38.5 29.5523 38.9477 30 39.5 30Z" fill="black"/>
</svg>
