<?xml version="1.0" encoding="UTF-8" standalone="no"?> <svg height="24" width="24" viewBox="0 0 52 52" fill="none" xmlns="http://www.w3.org/2000/svg">
<path d="M44.0212 9.4478C40.6494 7.90033 37.0914 6.7959 33.4359 6.16205C33.4028 6.15647 33.3688 6.16129 33.3385 6.17584C33.3083 6.19039 33.2833 6.21395 33.2669 6.2433C32.8087 7.0558 32.3017 8.11855 31.9474 8.95055C28.0072 8.35258 23.9992 8.35258 20.0589 8.95055C19.6638 8.0237 19.2168 7.11986 18.7199 6.2433C18.7033 6.21427 18.6782 6.19098 18.648 6.17648C18.6179 6.16197 18.584 6.15694 18.5509 6.16205C14.8949 6.79333 11.3366 7.89786 7.96569 9.4478C7.93685 9.4588 7.91273 9.47948 7.89744 9.5063C1.15694 19.578 -0.692311 29.4028 0.214439 39.104C0.217689 39.1495 0.246939 39.195 0.282689 39.2243C4.20783 42.1317 8.59813 44.3516 13.2664 45.7893C13.2994 45.7997 13.3348 45.7993 13.3675 45.7882C13.4003 45.7771 13.4286 45.7559 13.4484 45.7275C14.4494 44.3625 15.3399 42.9228 16.1069 41.4083C16.1175 41.3876 16.1236 41.3649 16.1246 41.3418C16.1257 41.3186 16.1218 41.2954 16.1132 41.2738C16.1046 41.2523 16.0914 41.2328 16.0747 41.2168C16.0579 41.2007 16.0379 41.1885 16.0159 41.1808C14.6157 40.6426 13.2596 39.9961 11.9599 39.247C11.9362 39.2333 11.9162 39.2139 11.9018 39.1906C11.8874 39.1672 11.8791 39.1407 11.8775 39.1133C11.8758 39.0859 11.8811 39.0586 11.8926 39.0337C11.9042 39.0088 11.9217 38.9872 11.9437 38.9708C12.2167 38.766 12.4897 38.5515 12.7497 38.337C12.7727 38.3186 12.8002 38.3067 12.8294 38.3027C12.8586 38.2987 12.8883 38.3027 12.9154 38.3143C21.4272 42.2013 30.6409 42.2013 39.0487 38.3143C39.0767 38.3018 39.1076 38.2973 39.138 38.3013C39.1684 38.3053 39.1971 38.3177 39.2209 38.337C39.4809 38.5515 39.7539 38.766 40.0269 38.9708C40.0491 38.987 40.0668 39.0084 40.0787 39.0331C40.0905 39.0578 40.096 39.0851 40.0947 39.1124C40.0934 39.1398 40.0854 39.1664 40.0713 39.1899C40.0572 39.2134 40.0375 39.233 40.0139 39.247C38.7172 40.0029 37.3593 40.6486 35.9547 41.1775C35.9329 41.1859 35.9132 41.1988 35.8968 41.2153C35.8803 41.2318 35.8676 41.2516 35.8593 41.2733C35.851 41.2951 35.8474 41.3184 35.8487 41.3416C35.85 41.3649 35.8563 41.3876 35.8669 41.4083C36.6469 42.9196 37.5407 44.3625 38.5222 45.7275C38.542 45.7559 38.5704 45.7771 38.6031 45.7882C38.6358 45.7993 38.6712 45.7997 38.7042 45.7893C43.3803 44.3561 47.7778 42.136 51.7074 39.2243C51.727 39.2105 51.7432 39.1926 51.755 39.1718C51.7668 39.151 51.7739 39.1279 51.7757 39.104C52.8612 27.8883 49.9589 18.1448 44.0862 9.50955C44.0803 9.49528 44.0714 9.48242 44.0602 9.47178C44.049 9.46115 44.0357 9.45298 44.0212 9.4478V9.4478ZM17.3777 33.1955C14.8134 33.1955 12.7042 30.8425 12.7042 27.9565C12.7042 25.0673 14.7744 22.7143 17.3777 22.7143C20.0004 22.7143 22.0902 25.0868 22.0512 27.9565C22.0512 30.8425 19.9809 33.1955 17.3777 33.1955ZM34.6547 33.1955C32.0937 33.1955 29.9812 30.8425 29.9812 27.9565C29.9812 25.0673 32.0514 22.7143 34.6547 22.7143C37.2774 22.7143 39.3704 25.0868 39.3282 27.9565C39.3282 30.8425 37.2774 33.1955 34.6547 33.1955Z" fill="black"/>
</svg>
