<?xml version="1.0" encoding="utf-8"?>
<!-- Generator: Adobe Illustrator 14.0.0, SVG Export Plug-In . SVG Version: 6.00 Build 43363)  -->
<!DOCTYPE svg PUBLIC "-//W3C//DTD SVG 1.1//EN" "http://www.w3.org/Graphics/SVG/1.1/DTD/svg11.dtd">
<svg version="1.1" id="Layer_1" xmlns="http://www.w3.org/2000/svg" xmlns:xlink="http://www.w3.org/1999/xlink" height="24" width="24"
	  viewBox="0 0 40 40" enable-background="new 0 0 40 40" xml:space="preserve">
<g>
	<path d="M8.236,15.765C5.901,15.765,4,17.665,4,20c0,2.336,1.901,4.234,4.236,4.234c2.336,0,4.235-1.898,4.235-4.234
		C12.472,17.665,10.572,15.765,8.236,15.765z M8.236,22.824c-1.557,0-2.823-1.268-2.823-2.824c0-1.557,1.267-2.824,2.823-2.824
		c1.558,0,2.822,1.267,2.822,2.824C11.059,21.557,9.794,22.824,8.236,22.824z"/>
	<path d="M20,15.765c-2.334,0-4.236,1.899-4.236,4.235c0,2.336,1.902,4.234,4.236,4.234c2.337,0,4.236-1.898,4.236-4.234
		C24.236,17.665,22.337,15.765,20,15.765z M20,22.824c-1.557,0-2.822-1.268-2.822-2.824c0-1.557,1.266-2.824,2.822-2.824
		c1.559,0,2.822,1.267,2.822,2.824C22.822,21.557,21.559,22.824,20,22.824z"/>
	<path d="M31.764,15.765c-2.334,0-4.235,1.899-4.235,4.235c0,2.336,1.901,4.234,4.235,4.234C34.101,24.234,36,22.336,36,20
		C36,17.665,34.101,15.765,31.764,15.765z M31.764,22.824c-1.556,0-2.822-1.268-2.822-2.824c0-1.557,1.267-2.824,2.822-2.824
		c1.559,0,2.823,1.267,2.823,2.824C34.587,21.557,33.322,22.824,31.764,22.824z"/>
</g>
</svg>
