<?xml version="1.0" encoding="UTF-8" standalone="no"?> <svg height="24" width="24" viewBox="0 0 52 52" fill="none" xmlns="http://www.w3.org/2000/svg">
<path d="M0 25.22C0 10.7286 11.3534 0 26 0C40.6466 0 52 10.7286 52 25.22C52 39.7114 40.6466 50.44 26 50.44C23.3692 50.44 20.8452 50.0926 18.4738 49.4406C18.0128 49.3137 17.5226 49.3496 17.0851 49.5425L11.9245 51.8206C10.5746 52.4165 9.05076 51.4566 9.00552 49.9814L8.86392 45.3565C8.8465 44.7866 8.59014 44.2541 8.16546 43.874C3.10648 39.3499 0 32.7999 0 25.22ZM18.0246 20.4786L10.3871 32.5956C9.65418 33.7585 11.0836 35.0689 12.1785 34.2379L20.3825 28.0117C20.9374 27.5905 21.7043 27.5883 22.2616 28.0063L28.3362 32.5622C30.159 33.9294 32.7605 33.4494 33.9755 31.5218L41.613 19.4047C42.3458 18.2418 40.9165 16.9314 39.8215 17.7624L31.6176 23.9886C31.0626 24.4098 30.2957 24.412 29.7384 23.9939L23.6639 19.4381C21.8411 18.071 19.2395 18.5509 18.0246 20.4786Z" fill="black"/>
</svg>
