<?xml version="1.0" encoding="UTF-8" standalone="no"?> <svg id="Layer_1" data-name="Layer 1" xmlns="http://www.w3.org/2000/svg" height="24" width="24" viewBox="0 0 512 512"><title>Mute</title><path d="M223.92,152.62l53.41-30.53V192A21.34,21.34,0,0,0,320,192V85.33a21.34,21.34,0,0,0-31.92-18.52l-85.33,48.76a21.34,21.34,0,0,0,21.17,37.05Z"/><path d="M362.67,256a21.33,21.33,0,0,0,42.66,0,149.29,149.29,0,0,0-20-74.68,21.33,21.33,0,1,0-36.93,21.36A106.58,106.58,0,0,1,362.67,256Z"/><path d="M471.13,162.12a235.63,235.63,0,0,0-11.87-23.47A21.33,21.33,0,0,0,422.33,160a192.84,192.84,0,0,1,9.7,19.2,192.86,192.86,0,0,1,6.83,135.51,21.34,21.34,0,1,0,40.63,13,235.55,235.55,0,0,0-8.36-165.64Z"/><path d="M461.33,392.94l-384-307.2a21.34,21.34,0,1,0-26.66,33.32l37.85,30.27H85.33a64,64,0,0,0-64,64v85.34a64,64,0,0,0,64,64h58.34l144.41,82.52A21.34,21.34,0,0,0,320,426.67V334.52l114.67,91.74a21.34,21.34,0,1,0,26.66-33.32ZM128,320H85.33A21.36,21.36,0,0,1,64,298.67V213.33A21.36,21.36,0,0,1,85.33,192H128Zm149.33,69.91L170.67,329V215.05l106.66,85.34Z"/></svg>