<?xml version="1.0" encoding="UTF-8" standalone="no"?> <svg height="24" width="24" viewBox="0 0 64 64" fill="none" xmlns="http://www.w3.org/2000/svg">
<path d="M49.2899 13.3C48.8234 12.9177 48.2801 12.6403 47.6969 12.4867C47.1136 12.3332 46.5042 12.307 45.9099 12.41C45.106 12.5428 44.3573 12.9044 43.7535 13.4516C43.1498 13.9988 42.7164 14.7084 42.5054 15.4954C42.2944 16.2824 42.3147 17.1136 42.5638 17.8894C42.8128 18.6653 43.2802 19.3529 43.9099 19.87C46.9328 22.3442 49.098 25.7091 50.0971 29.4855C51.0962 33.2619 50.8783 37.2573 49.4745 40.9026C48.0706 44.548 45.5524 47.6575 42.2784 49.7883C39.0043 51.9191 35.1415 52.9625 31.2399 52.77C26.5277 52.4818 22.097 50.4294 18.8299 47.0215C15.5628 43.6135 13.6991 39.1002 13.6099 34.38C13.581 31.6075 14.1773 28.8641 15.3546 26.3537C16.5318 23.8434 18.2597 21.6307 20.4099 19.88C21.2851 19.1693 21.8421 18.1399 21.9584 17.0184C22.0747 15.897 21.7407 14.7752 21.0299 13.9C20.3191 13.0248 19.2898 12.4678 18.1683 12.3515C17.0468 12.2353 15.9251 12.5693 15.0499 13.28C10.9182 16.6506 7.87486 21.1671 6.30219 26.262C4.72953 31.3569 4.69772 36.803 6.21076 41.9159C7.72381 47.0288 10.7142 51.5806 14.8062 54.9991C18.8982 58.4177 23.9093 60.5507 29.2099 61.13C30.2062 61.238 31.2077 61.2914 32.2099 61.29C38.8646 61.298 45.283 58.8234 50.2099 54.35C53.1101 51.7481 55.4128 48.5494 56.9598 44.9734C58.5069 41.3975 59.2617 37.529 59.1724 33.6338C59.0831 29.7385 58.1518 25.9088 56.4425 22.4075C54.7331 18.9062 52.2863 15.8163 49.2699 13.35L49.2899 13.3Z" fill="black"/>
<path d="M32 34.25C33.1264 34.2474 34.2058 33.7987 35.0023 33.0023C35.7987 32.2058 36.2474 31.1264 36.25 30V7C36.25 5.87283 35.8022 4.79183 35.0052 3.9948C34.2082 3.19777 33.1272 2.75 32 2.75C30.8728 2.75 29.7918 3.19777 28.9948 3.9948C28.1978 4.79183 27.75 5.87283 27.75 7V30C27.7526 31.1264 28.2013 32.2058 28.9977 33.0023C29.7942 33.7987 30.8736 34.2474 32 34.25Z" fill="black"/>
</svg>
