<?xml version="1.0" encoding="utf-8"?>
<!-- Generator: Adobe Illustrator 24.1.3, SVG Export Plug-In . SVG Version: 6.00 Build 0)  -->
<svg version="1.1" id="Layer_1" xmlns="http://www.w3.org/2000/svg" xmlns:xlink="http://www.w3.org/1999/xlink" height="24" width="24"
	 viewBox="0 0 64 64" style="enable-background:new 0 0 64 64;" xml:space="preserve">
<g>
	<path d="M35.8,11.7C19.1-3.6-3.6,19.1,11.7,35.8c3.3,3.3,7.7,5,12,5C38.7,40.8,46.5,22.3,35.8,11.7z M34.3,34.3
		c-5.6,5.8-15.6,5.8-21.2,0C3.7,25,10.5,8.6,23.7,8.7C36.9,8.6,43.7,25,34.3,34.3z"/>
	<path d="M59.7,52.9L46.2,39.4c-1.2-1.2-2.9-1.4-4.1-0.6l-2.4-2.4C54.9,15.8,28-8.2,9.3,9.3c-8,8-8,20.9,0,28.8
		c7.3,7.3,19,7.9,27,1.6l2.5,2.5c-0.7,1.1-0.5,2.8,0.7,4L53,59.7c0.7,0.7,1.7,1.1,2.5,1.1c0.7,0,1.4-0.2,1.9-0.7l2.7-2.7
		C61.2,56.2,61,54.2,59.7,52.9z M10.7,36.7C-0.9,25.2,7.6,5.2,23.7,5.3c4.7,0,9.4,1.8,13,5.4C53.3,28.7,28.7,53.3,10.7,36.7z
		 M38.1,38.1c0.1-0.1,0.2-0.2,0.3-0.3l2.3,2.3l-0.6,0.6l-2.3-2.3C37.9,38.3,38,38.2,38.1,38.1z M58.7,55.9L56,58.6
		c-0.3,0.3-1,0.2-1.6-0.4L40.9,44.7c-0.7-0.8-0.6-1.4-0.1-1.9c0,0,2-2,2-2l0.4-0.4c0.5-0.4,1.1-0.1,1.6,0.4c0,0,13.5,13.5,13.5,13.5
		C58.9,54.9,59,55.6,58.7,55.9z"/>
</g>
<g>
	<path d="M-441.2-60.2c-0.9-22.6-33.1-22.6-34,0c0,4.7,1.9,8.9,5,12C-459.8-37.5-441.2-45.1-441.2-60.2z M-458.2-45.2
		c-8.1,0.2-15.2-6.9-15-15c-0.1-13.2,16.3-20,25.6-10.6C-438.2-61.5-445-45.1-458.2-45.2z"/>
	<path d="M-453.4-14.1v-19.1c0-1.7-1.1-3.1-2.4-3.3v-3.5c25.2-3.8,23.2-39.8-2.4-40.6c-11.2,0-20.4,9.1-20.4,20.4
		c0,10.4,7.8,19,18,20.2v3.5c-1.3,0.3-2.3,1.7-2.3,3.3l0,19.1c0,1,0.4,2,1,2.6c0.5,0.5,1.1,0.8,1.9,0.8h3.8
		C-454.7-10.7-453.4-12.2-453.4-14.1z M-476.6-60.2c0-16.3,20-24.5,31.4-13c3.3,3.3,5.4,7.9,5.4,13
		C-440.9-35.8-475.6-35.8-476.6-60.2z M-458.2-39.8c0.1,0,0.3,0,0.4,0v3.3h-0.8l0-3.3C-458.5-39.8-458.4-39.8-458.2-39.8z
		 M-456.3-12.7h-3.8c-0.4,0-0.9-0.6-0.9-1.4l0-19.1c0-1.1,0.6-1.5,1.3-1.4c0,0,2.8,0,2.8,0h0.5c0.6,0.1,0.8,0.7,0.9,1.4
		c0,0,0,19.1,0,19.1C-455.4-13.3-455.9-12.7-456.3-12.7z"/>
</g>
</svg>
