<?xml version="1.0" encoding="UTF-8" standalone="no"?> <svg height="24" width="24" viewBox="0 0 64 64" fill="none" xmlns="http://www.w3.org/2000/svg">
<path d="M58.24 44.82C57.0347 43.6236 55.5304 42.7725 53.884 42.3556C52.2376 41.9388 50.5095 41.9714 48.88 42.45L21.55 15.12C24.25 5.74999 12.7 -1.11001 5.76005 5.75999C-1.17995 12.63 5.76005 24.28 15.14 21.57L42.45 48.88C40.57 54.69 45.39 61.2 51.53 61C59.89 61.09 64.19 50.7 58.24 44.82ZM16.53 14.08L14.08 16.53C13.9874 16.6245 13.877 16.6996 13.7551 16.7511C13.6332 16.8026 13.5024 16.8294 13.37 16.83C13.42 16.92 9.82005 15.89 9.76005 15.89C9.59081 15.8456 9.43617 15.7576 9.31158 15.6348C9.187 15.512 9.09681 15.3586 9.05005 15.19L8.15005 11.83C8.09823 11.6554 8.09507 11.47 8.14089 11.2938C8.18671 11.1176 8.27977 10.9572 8.41005 10.83L10.86 8.37999C10.9873 8.24972 11.1476 8.15665 11.3239 8.11083C11.5001 8.06501 11.6855 8.06818 11.86 8.11999L15.22 9.01999C15.3886 9.06676 15.542 9.15694 15.6648 9.28153C15.7877 9.40612 15.8757 9.56075 15.92 9.72999L16.82 13.08C16.8682 13.2572 16.8666 13.4443 16.8155 13.6207C16.7643 13.7971 16.6656 13.956 16.53 14.08ZM56.29 53.32L53.29 56.32C53.1038 56.5047 52.8524 56.6089 52.59 56.61C52.5037 56.6204 52.4164 56.6204 52.33 56.61L48.3 55.46C48.1315 55.4132 47.9781 55.323 47.8552 55.1985C47.7324 55.0739 47.6444 54.9192 47.6 54.75L46.51 50.75C46.4582 50.5754 46.4551 50.39 46.5009 50.2138C46.5467 50.0376 46.6398 49.8772 46.77 49.75L49.77 46.75C49.8973 46.6197 50.0576 46.5267 50.2339 46.4808C50.4101 46.435 50.5955 46.4382 50.77 46.49L54.77 47.58C54.9393 47.6244 55.0939 47.7124 55.2185 47.8352C55.3431 47.958 55.4333 48.1114 55.48 48.28L56.57 52.34C56.6155 52.5134 56.6135 52.6959 56.5643 52.8683C56.515 53.0408 56.4203 53.1968 56.29 53.32V53.32Z" fill="black"/>
<path d="M29.7501 39.69L29.5301 39.36L24.6501 34.48C24.5571 34.3863 24.4465 34.3119 24.3247 34.2611C24.2028 34.2103 24.0721 34.1842 23.9401 34.1842C23.8081 34.1842 23.6774 34.2103 23.5555 34.2611C23.4337 34.3119 23.3231 34.3863 23.2301 34.48L15.3401 42.37C6.0001 39.56 -1.0599 51.09 5.8701 58.13C12.8001 65.17 24.4401 58 21.6301 48.67L29.5301 40.78C29.6622 40.6353 29.7524 40.4575 29.7912 40.2655C29.8299 40.0735 29.8157 39.8746 29.7501 39.69V39.69ZM17.6501 50.59L16.5501 54.7C16.5049 54.8704 16.4154 55.0259 16.2907 55.1506C16.166 55.2753 16.0105 55.3648 15.8401 55.41L11.7301 56.51C11.5555 56.5618 11.3701 56.565 11.1939 56.5192C11.0177 56.4733 10.8573 56.3803 10.7301 56.25L7.7301 53.25C7.59982 53.1228 7.50676 52.9624 7.46094 52.7862C7.41512 52.61 7.41829 52.4246 7.4701 52.25L8.5701 48.14C8.61533 47.9696 8.70484 47.8141 8.82953 47.6894C8.95422 47.5647 9.10966 47.4752 9.2801 47.43L13.3901 46.33C13.5647 46.2782 13.7501 46.275 13.9263 46.3208C14.1025 46.3667 14.2629 46.4597 14.3901 46.59L17.3901 49.59C17.5204 49.7172 17.6134 49.8776 17.6593 50.0538C17.7051 50.23 17.7019 50.4154 17.6501 50.59V50.59Z" fill="black"/>
<path d="M34.48 24.65L39.36 29.53C39.453 29.6238 39.5636 29.6982 39.6854 29.7489C39.8073 29.7997 39.938 29.8258 40.07 29.8258C40.202 29.8258 40.3327 29.7997 40.4546 29.7489C40.5764 29.6982 40.687 29.6238 40.78 29.53L48.12 22.17C55 24.61 62.32 18.09 60.75 11C60.6994 10.7582 60.561 10.5437 60.3616 10.3978C60.1622 10.2519 59.9158 10.185 59.67 10.21C59.4426 10.2382 59.2296 10.336 59.06 10.49L55.06 14.49L50.7 13.32L49.49 9.00004L53.49 5.00004C53.5887 4.89112 53.6637 4.76287 53.7102 4.62342C53.7566 4.48398 53.7736 4.33639 53.76 4.19004C53.7533 3.97188 53.6753 3.76193 53.5381 3.5922C53.4009 3.42248 53.2119 3.30231 53 3.25004C45.86 1.71004 39.45 9.00003 41.84 15.86L34.48 23.23C34.3863 23.323 34.3119 23.4336 34.2611 23.5555C34.2103 23.6773 34.1842 23.808 34.1842 23.94C34.1842 24.072 34.2103 24.2028 34.2611 24.3246C34.3119 24.4465 34.3863 24.5571 34.48 24.65V24.65Z" fill="black"/>
</svg>
