<?xml version="1.0" encoding="UTF-8" standalone="no"?> <svg height="24" width="24" viewBox="0 0 512 512" fill="none" xmlns="http://www.w3.org/2000/svg">
<path d="M340.979 473.083C336.075 473.083 331.321 471.394 327.516 468.3C323.711 465.206 321.089 460.895 320.09 456.094C319.091 451.293 319.776 446.294 322.031 441.939C324.286 437.584 327.972 434.139 332.469 432.183C366.799 417.269 396.024 392.648 416.549 361.347C437.074 330.046 448.006 293.43 448 256C448 150.13 361.865 64 256 64C150.135 64 64 150.13 64 256C63.9905 272.196 66.0205 288.328 70.042 304.016C70.7563 306.734 70.9264 309.567 70.5426 312.351C70.1587 315.135 69.2283 317.815 67.8051 320.239C66.3818 322.662 64.4936 324.78 62.2491 326.472C60.0045 328.163 57.4479 329.394 54.7261 330.094C52.0042 330.794 49.1709 330.949 46.3889 330.551C43.6069 330.152 40.9311 329.208 38.5152 327.772C36.0994 326.336 33.9911 324.436 32.3117 322.183C30.6323 319.93 29.4147 317.366 28.729 314.641C23.8101 295.482 21.3252 275.78 21.333 256C21.333 126.6 126.6 21.333 256 21.333C385.4 21.333 490.667 126.6 490.667 256C490.676 301.744 477.317 346.494 452.231 384.747C427.144 422.999 391.426 453.086 349.467 471.307C346.791 472.48 343.901 473.085 340.979 473.083V473.083Z" fill="black"/>
<path d="M352 277.333H256C250.342 277.333 244.916 275.085 240.916 271.084C236.915 267.084 234.667 261.658 234.667 256V128C234.667 122.342 236.915 116.916 240.915 112.915C244.916 108.915 250.342 106.667 256 106.667C261.658 106.667 267.084 108.915 271.085 112.915C275.085 116.916 277.333 122.342 277.333 128V234.667H352C354.801 234.667 357.576 235.219 360.164 236.291C362.752 237.363 365.104 238.934 367.085 240.915C369.066 242.896 370.637 245.248 371.709 247.836C372.781 250.424 373.333 253.199 373.333 256C373.333 258.801 372.781 261.576 371.709 264.164C370.637 266.752 369.066 269.104 367.085 271.085C365.104 273.066 362.752 274.637 360.164 275.709C357.576 276.781 354.801 277.333 352 277.333V277.333Z" fill="black"/>
<path d="M266.667 469.333H170.667C166.628 469.334 162.672 468.188 159.259 466.029C155.845 463.87 153.115 460.786 151.385 457.136C149.656 453.487 148.998 449.421 149.489 445.412C149.979 441.403 151.598 437.615 154.156 434.49L221.646 352H170.667C167.853 352.019 165.063 351.482 162.458 350.418C159.853 349.355 157.484 347.786 155.487 345.803C153.491 343.821 151.906 341.462 150.825 338.864C149.744 336.267 149.187 333.48 149.187 330.667C149.187 327.853 149.744 325.066 150.825 322.469C151.906 319.871 153.491 317.512 155.487 315.53C157.484 313.547 159.853 311.978 162.458 310.915C165.063 309.851 167.853 309.314 170.667 309.333H266.667C270.706 309.332 274.662 310.478 278.075 312.638C281.488 314.797 284.218 317.881 285.948 321.531C287.677 325.181 288.335 329.247 287.844 333.255C287.354 337.264 285.735 341.052 283.177 344.177L215.688 426.667H266.667C272.325 426.667 277.751 428.915 281.752 432.915C285.752 436.916 288 442.342 288 448C288 453.658 285.752 459.084 281.752 463.085C277.751 467.085 272.325 469.333 266.667 469.333V469.333Z" fill="black"/>
<path d="M117.333 490.667H42.667C38.5683 490.668 34.5561 489.488 31.1106 487.268C27.6651 485.048 24.9321 481.882 23.2386 478.15C21.5452 474.417 20.9631 470.276 21.5619 466.221C22.1606 462.166 23.915 458.37 26.615 455.286L70.323 405.333H42.667C37.0092 405.333 31.583 403.085 27.5823 399.085C23.5816 395.084 21.334 389.658 21.334 384C21.334 378.342 23.5816 372.916 27.5823 368.915C31.583 364.915 37.0092 362.667 42.667 362.667H117.333C121.432 362.666 125.444 363.847 128.889 366.066C132.334 368.286 135.067 371.452 136.76 375.184C138.454 378.917 139.036 383.058 138.437 387.112C137.839 391.167 136.085 394.963 133.385 398.047L89.677 448H117.333C120.147 447.981 122.937 448.518 125.542 449.582C128.147 450.645 130.516 452.214 132.513 454.197C134.509 456.179 136.094 458.538 137.175 461.136C138.256 463.733 138.813 466.52 138.813 469.333C138.813 472.147 138.256 474.934 137.175 477.531C136.094 480.129 134.509 482.488 132.513 484.47C130.516 486.453 128.147 488.022 125.542 489.085C122.937 490.149 120.147 490.686 117.333 490.667V490.667Z" fill="black"/>
</svg>
