<?xml version="1.0" encoding="UTF-8" standalone="no"?> <svg height="24" width="24" viewBox="0 0 100 100" fill="none" xmlns="http://www.w3.org/2000/svg">
<path d="M50.8188 25.0422C53.5455 25 56.2566 25.025 58.9646 25C59.1286 28.1892 60.2756 31.4378 62.6101 33.6927C64.9399 36.0037 68.2354 37.0616 71.4418 37.4194V45.8089C68.4369 45.7105 65.418 45.0854 62.6913 43.7916C61.5038 43.2541 60.3974 42.5619 59.3146 41.854C59.3005 47.9418 59.3396 54.0219 59.2755 60.0847C59.113 62.9973 58.152 65.8959 56.4582 68.2961C53.733 72.2916 49.0031 74.8964 44.145 74.9777C41.1652 75.148 38.1884 74.3354 35.6493 72.8385C31.4412 70.3571 28.4801 65.8147 28.0488 60.9394C27.9988 59.8972 27.9817 58.8565 28.0238 57.8393C28.3989 53.875 30.3599 50.0826 33.4038 47.5028C36.854 44.4979 41.6871 43.0666 46.2123 43.9135C46.2545 46.9996 46.1311 50.0826 46.1311 53.1687C44.0638 52.4999 41.648 52.6874 39.8417 53.9422C38.5228 54.7969 37.5212 56.1063 36.9993 57.5877C36.5681 58.644 36.6915 59.8175 36.7165 60.9394C37.2118 64.3583 40.4995 67.2319 44.0091 66.921C46.3358 66.896 48.5656 65.5459 49.7781 63.5692C50.1703 62.877 50.6094 62.1692 50.6329 61.3551C50.8376 57.6283 50.7563 53.9172 50.7813 50.1904C50.7985 41.7915 50.7563 33.4161 50.8204 25.0438L50.8188 25.0422Z" fill="black"/>
</svg>
